<svg width="30" height="31" viewBox="0 0 30 31" fill="none" xmlns="http://www.w3.org/2000/svg">
<path d="M7.85229 25.8448C6.55383 25.8448 5.50325 26.8678 5.50325 28.1182C5.50325 29.3686 6.55383 30.3916 7.85229 30.3916C9.15075 30.3916 10.2131 29.3686 10.2131 28.1182C10.2131 26.8678 9.15075 25.8448 7.85229 25.8448ZM0.769775 7.65759V9.93099H3.13061L7.38012 18.5585L5.78655 21.3435C5.59769 21.6617 5.49145 22.0368 5.49145 22.4347C5.49145 23.6851 6.55383 24.7081 7.85229 24.7081H22.0173V22.4347H8.34806C8.18281 22.4347 8.05296 22.3097 8.05296 22.1505L8.08837 22.0141L9.15075 20.1613H17.9449C18.8302 20.1613 19.6093 19.6952 20.0106 18.9905L24.2365 11.6133C24.3309 11.4542 24.3782 11.2609 24.3782 11.0677C24.3782 10.4425 23.847 9.93099 23.1977 9.93099H5.73934L4.62974 7.65759H0.769775ZM19.6565 25.8448C18.358 25.8448 17.3074 26.8678 17.3074 28.1182C17.3074 29.3686 18.358 30.3916 19.6565 30.3916C20.9549 30.3916 22.0173 29.3686 22.0173 28.1182C22.0173 26.8678 20.9549 25.8448 19.6565 25.8448Z" fill="#959292"/>
<circle cx="23.0668" cy="7.22024" r="6.55788" fill="#EA1701"/>
<path d="M23.7882 3.03124V10.6622H22.4058V4.37635H22.3611L20.5763 5.51653V4.24967L22.4729 3.03124H23.7882Z" fill="white"/>
</svg>
